<svg xmlns="http://www.w3.org/2000/svg" xmlns:xlink="http://www.w3.org/1999/xlink" width="500" zoomAndPan="magnify" viewBox="0 0 375 374.999991" height="500" preserveAspectRatio="xMidYMid meet" version="1.0"><defs><clipPath id="6f5c404332"><path d="M 172 143.605469 L 181 143.605469 L 181 173 L 172 173 Z M 172 143.605469 " clip-rule="nonzero"/></clipPath><clipPath id="f47681e387"><path d="M 184 143.605469 L 192 143.605469 L 192 173 L 184 173 Z M 184 143.605469 " clip-rule="nonzero"/></clipPath><clipPath id="0580d0e97f"><path d="M 195 143.605469 L 204 143.605469 L 204 173 L 195 173 Z M 195 143.605469 " clip-rule="nonzero"/></clipPath><clipPath id="55cb1fb439"><path d="M 159.699219 182.085938 L 215.816406 182.085938 L 215.816406 228.339844 L 159.699219 228.339844 Z M 159.699219 182.085938 " clip-rule="nonzero"/></clipPath></defs><path stroke-linecap="round" transform="matrix(0.000000000000000046, -0.750898, 0.75, 0.000000000000000046, 144.372096, 265.781234)" fill="none" stroke-linejoin="miter" d="M 57.49883 57.498668 L 151.256344 57.498668 " stroke="#ad7251" stroke-width="115" stroke-opacity="1" stroke-miterlimit="4"/><g clip-path="url(#6f5c404332)"><path fill="#ffffff" d="M 176.539062 172.328125 C 176.371094 172.328125 176.207031 172.304688 176.039062 172.253906 C 175.039062 171.980469 174.460938 170.957031 174.734375 169.964844 C 174.765625 169.851562 174.847656 169.65625 174.902344 169.546875 C 176.550781 166.230469 177.800781 161.773438 176.375 159.203125 C 176.113281 158.726562 175.910156 158.558594 175.53125 158.261719 C 175.039062 157.875 174.371094 157.34375 173.769531 156.226562 C 172.230469 153.328125 172.730469 149.511719 175.261719 144.882812 C 175.757812 143.976562 176.890625 143.648438 177.800781 144.136719 C 178.710938 144.632812 179.039062 145.765625 178.550781 146.664062 C 176.679688 150.078125 176.171875 152.78125 177.082031 154.480469 C 177.308594 154.910156 177.488281 155.058594 177.859375 155.34375 C 178.351562 155.738281 179.027344 156.269531 179.65625 157.402344 C 182.25 162.089844 179.539062 168.617188 178.253906 171.207031 L 178.25 171.207031 C 177.957031 171.890625 177.273438 172.328125 176.539062 172.328125 " fill-opacity="1" fill-rule="nonzero"/></g><g clip-path="url(#f47681e387)"><path fill="#ffffff" d="M 187.757812 172.328125 C 187.597656 172.328125 187.429688 172.304688 187.261719 172.253906 C 186.265625 171.980469 185.679688 170.957031 185.957031 169.964844 C 185.984375 169.851562 186.070312 169.65625 186.125 169.546875 C 187.769531 166.230469 189.023438 161.773438 187.601562 159.203125 C 187.339844 158.726562 187.128906 158.558594 186.753906 158.261719 C 186.261719 157.875 185.589844 157.34375 184.996094 156.226562 C 183.453125 153.328125 183.957031 149.511719 186.488281 144.882812 C 186.980469 143.976562 188.117188 143.648438 189.023438 144.136719 C 189.933594 144.632812 190.265625 145.765625 189.769531 146.664062 C 187.90625 150.078125 187.398438 152.78125 188.304688 154.480469 C 188.53125 154.910156 188.714844 155.058594 189.082031 155.34375 C 189.574219 155.738281 190.25 156.269531 190.878906 157.402344 C 193.46875 162.089844 190.765625 168.617188 189.476562 171.207031 C 189.175781 171.890625 188.496094 172.328125 187.757812 172.328125 " fill-opacity="1" fill-rule="nonzero"/></g><g clip-path="url(#0580d0e97f)"><path fill="#ffffff" d="M 198.984375 172.328125 C 198.816406 172.328125 198.648438 172.304688 198.480469 172.253906 C 197.488281 171.980469 196.90625 170.957031 197.183594 169.964844 C 197.210938 169.851562 197.296875 169.65625 197.351562 169.546875 C 198.996094 166.230469 200.25 161.773438 198.824219 159.203125 C 198.558594 158.726562 198.355469 158.558594 197.980469 158.261719 C 197.488281 157.875 196.816406 157.34375 196.21875 156.226562 C 194.675781 153.328125 195.175781 149.511719 197.710938 144.882812 C 198.207031 143.976562 199.34375 143.648438 200.25 144.136719 C 201.152344 144.632812 201.488281 145.765625 200.996094 146.664062 C 199.128906 150.078125 198.621094 152.78125 199.523438 154.480469 C 199.757812 154.910156 199.9375 155.058594 200.308594 155.34375 C 200.800781 155.738281 201.476562 156.269531 202.097656 157.402344 C 204.699219 162.089844 201.984375 168.617188 200.703125 171.207031 L 200.699219 171.207031 C 200.402344 171.890625 199.722656 172.328125 198.984375 172.328125 " fill-opacity="1" fill-rule="nonzero"/></g><g clip-path="url(#55cb1fb439)"><path fill="#ffffff" d="M 215.816406 191.589844 C 215.816406 202.574219 211.351562 212.535156 204.128906 219.75 L 204.128906 225.0625 C 204.128906 226.871094 202.65625 228.339844 200.835938 228.339844 L 174.679688 228.339844 C 172.867188 228.339844 171.394531 226.871094 171.394531 225.0625 L 171.394531 219.75 C 164.167969 212.535156 159.699219 202.574219 159.699219 191.589844 C 159.699219 189.355469 159.886719 187.175781 160.238281 185.042969 C 160.503906 183.453125 161.863281 182.269531 163.484375 182.269531 L 212.03125 182.269531 C 213.65625 182.269531 215.019531 183.453125 215.285156 185.042969 C 215.636719 187.175781 215.816406 189.355469 215.816406 191.589844 " fill-opacity="1" fill-rule="nonzero"/></g></svg>