<svg xmlns="http://www.w3.org/2000/svg" xmlns:xlink="http://www.w3.org/1999/xlink" width="500" zoomAndPan="magnify" viewBox="0 0 375 374.999991" height="500" preserveAspectRatio="xMidYMid meet" version="1.0"><defs><clipPath id="eda79128d4"><path d="M 172 143.605469 L 181 143.605469 L 181 173 L 172 173 Z M 172 143.605469 " clip-rule="nonzero"/></clipPath><clipPath id="1cf07e87e1"><path d="M 183 143.605469 L 192 143.605469 L 192 173 L 183 173 Z M 183 143.605469 " clip-rule="nonzero"/></clipPath><clipPath id="5b05328939"><path d="M 194 143.605469 L 203 143.605469 L 203 173 L 194 173 Z M 194 143.605469 " clip-rule="nonzero"/></clipPath><clipPath id="461060aa73"><path d="M 159.699219 182.085938 L 215.222656 182.085938 L 215.222656 228.335938 L 159.699219 228.335938 Z M 159.699219 182.085938 " clip-rule="nonzero"/></clipPath></defs><rect x="-37.5" width="450" fill="#ffffff" y="-37.499999" height="449.999989" fill-opacity="1"/><rect x="-37.5" width="450" fill="#ffffff" y="-37.499999" height="449.999989" fill-opacity="1"/><rect x="-37.5" width="450" fill="#000000" y="-37.499999" height="449.999989" fill-opacity="1"/><path stroke-linecap="round" transform="matrix(0.000000000000000078, -1.26728, 1.264884, 0.000000000000000077, 144.484361, 265.774583)" fill="none" stroke-linejoin="miter" d="M 33.999666 34.001393 L 89.781677 34.001393 " stroke="#ffffff" stroke-width="68" stroke-opacity="1" stroke-miterlimit="4"/><g clip-path="url(#eda79128d4)"><path fill="#ad7251" d="M 176.359375 172.328125 C 176.191406 172.328125 176.03125 172.300781 175.867188 172.253906 C 174.875 171.980469 174.300781 170.953125 174.574219 169.964844 C 174.605469 169.851562 174.6875 169.652344 174.742188 169.546875 C 176.371094 166.230469 177.609375 161.773438 176.199219 159.203125 C 175.9375 158.726562 175.734375 158.558594 175.363281 158.261719 C 174.875 157.875 174.214844 157.34375 173.621094 156.226562 C 172.097656 153.328125 172.589844 149.511719 175.097656 144.882812 C 175.585938 143.976562 176.707031 143.648438 177.609375 144.136719 C 178.507812 144.632812 178.835938 145.765625 178.347656 146.664062 C 176.5 150.078125 175.996094 152.78125 176.898438 154.480469 C 177.121094 154.910156 177.300781 155.058594 177.667969 155.34375 C 178.152344 155.738281 178.824219 156.269531 179.445312 157.402344 C 182.011719 162.089844 179.324219 168.617188 178.058594 171.203125 L 178.050781 171.203125 C 177.761719 171.890625 177.085938 172.328125 176.359375 172.328125 " fill-opacity="1" fill-rule="nonzero"/></g><g clip-path="url(#1cf07e87e1)"><path fill="#ad7251" d="M 187.460938 172.328125 C 187.300781 172.328125 187.136719 172.300781 186.96875 172.253906 C 185.984375 171.980469 185.40625 170.953125 185.675781 169.964844 C 185.707031 169.851562 185.789062 169.652344 185.84375 169.546875 C 187.472656 166.230469 188.710938 161.773438 187.304688 159.203125 C 187.046875 158.726562 186.839844 158.558594 186.464844 158.261719 C 185.980469 157.875 185.316406 157.34375 184.730469 156.226562 C 183.199219 153.328125 183.699219 149.511719 186.203125 144.882812 C 186.691406 143.976562 187.816406 143.648438 188.710938 144.136719 C 189.609375 144.632812 189.941406 145.765625 189.453125 146.664062 C 187.609375 150.078125 187.105469 152.78125 188 154.480469 C 188.226562 154.910156 188.410156 155.058594 188.769531 155.34375 C 189.253906 155.738281 189.925781 156.269531 190.546875 157.402344 C 193.113281 162.089844 190.433594 168.617188 189.160156 171.203125 C 188.863281 171.890625 188.1875 172.328125 187.460938 172.328125 " fill-opacity="1" fill-rule="nonzero"/></g><g clip-path="url(#5b05328939)"><path fill="#ad7251" d="M 198.570312 172.328125 C 198.402344 172.328125 198.238281 172.300781 198.070312 172.253906 C 197.089844 171.980469 196.511719 170.953125 196.785156 169.964844 C 196.816406 169.851562 196.898438 169.652344 196.953125 169.546875 C 198.582031 166.230469 199.820312 161.773438 198.410156 159.203125 C 198.148438 158.726562 197.949219 158.558594 197.574219 158.261719 C 197.089844 157.875 196.425781 157.34375 195.832031 156.226562 C 194.304688 153.328125 194.800781 149.511719 197.308594 144.882812 C 197.800781 143.976562 198.925781 143.648438 199.820312 144.136719 C 200.714844 144.632812 201.046875 145.765625 200.558594 146.664062 C 198.710938 150.078125 198.207031 152.78125 199.101562 154.480469 C 199.332031 154.910156 199.511719 155.058594 199.878906 155.34375 C 200.363281 155.738281 201.035156 156.269531 201.648438 157.402344 C 204.222656 162.089844 201.539062 168.617188 200.269531 171.203125 L 200.265625 171.203125 C 199.972656 171.890625 199.296875 172.328125 198.570312 172.328125 " fill-opacity="1" fill-rule="nonzero"/></g><g clip-path="url(#461060aa73)"><path fill="#ad7251" d="M 215.222656 191.585938 C 215.222656 202.574219 210.804688 212.535156 203.660156 219.746094 L 203.660156 225.0625 C 203.660156 226.867188 202.203125 228.335938 200.398438 228.335938 L 174.519531 228.335938 C 172.726562 228.335938 171.269531 226.867188 171.269531 225.0625 L 171.269531 219.746094 C 164.117188 212.535156 159.699219 202.574219 159.699219 191.585938 C 159.699219 189.355469 159.882812 187.171875 160.230469 185.042969 C 160.492188 183.449219 161.835938 182.269531 163.441406 182.269531 L 211.480469 182.269531 C 213.085938 182.269531 214.4375 183.449219 214.695312 185.042969 C 215.046875 187.171875 215.222656 189.355469 215.222656 191.585938 " fill-opacity="1" fill-rule="nonzero"/></g></svg>